<?xml version="1.0" standalone="no"?><!-- Generator: Gravit.io --><svg xmlns="http://www.w3.org/2000/svg" xmlns:xlink="http://www.w3.org/1999/xlink" style="isolation:isolate" viewBox="0 0 595.276 841.89" width="595.276" height="841.89"><defs><clipPath id="_clipPath_4gwqesaebe9AHyNhhgAOkhdKsrRoAKt0"><rect width="595.276" height="841.89"/></clipPath></defs><g clip-path="url(#_clipPath_4gwqesaebe9AHyNhhgAOkhdKsrRoAKt0)"><g><rect x="153.638" y="276.945" width="288" height="288" transform="matrix(1,0,0,1,0,0)" fill="rgb(255,255,255)"/><path d=" M 297.638 172.945 C 160.638 172.945 49.638 283.945 49.638 420.945 C 49.638 557.945 160.638 668.945 297.638 668.945 C 434.638 668.945 545.638 557.945 545.638 420.945 C 545.638 283.945 434.638 172.945 297.638 172.945 Z  M 441.638 448.945 C 441.638 455.545 436.238 460.945 429.638 460.945 L 337.638 460.945 L 337.638 552.945 C 337.638 559.545 332.238 564.945 325.638 564.945 L 269.638 564.945 C 263.038 564.945 257.638 559.545 257.638 552.945 L 257.638 460.945 L 165.638 460.945 C 159.038 460.945 153.638 455.545 153.638 448.945 L 153.638 392.945 C 153.638 386.345 159.038 380.945 165.638 380.945 L 257.638 380.945 L 257.638 288.945 C 257.638 282.345 263.038 276.945 269.638 276.945 L 325.638 276.945 C 332.238 276.945 337.638 282.345 337.638 288.945 L 337.638 380.945 L 429.638 380.945 C 436.238 380.945 441.638 386.345 441.638 392.945 L 441.638 448.945 Z " fill="rgb(74,198,212)"/></g></g></svg>