<?xml version="1.0" standalone="no"?><!-- Generator: Gravit.io --><svg xmlns="http://www.w3.org/2000/svg" xmlns:xlink="http://www.w3.org/1999/xlink" style="isolation:isolate" viewBox="0 0 600 193" width="600" height="193"><defs><clipPath id="_clipPath_33XJ826Nz1qh7Z0Jx6qi8wPPhPdtJFRP"><rect width="600" height="193"/></clipPath></defs><g clip-path="url(#_clipPath_33XJ826Nz1qh7Z0Jx6qi8wPPhPdtJFRP)"><rect width="600" height="193" style="fill:rgb(233,101,76)"/><g><g><clipPath id="_clipPath_cA1eusppvt0dpoNcByG0ZJRDUqm4DFuF"><path d=" M 118.677 0 L 481.323 0 L 481.323 193 L 118.677 193 L 118.677 0 Z " fill="rgb(255,255,255)"/></clipPath><g clip-path="url(#_clipPath_cA1eusppvt0dpoNcByG0ZJRDUqm4DFuF)"><g><g filter="url(#EtMkBKZ3GPe6r3XwQf3nekaKzfCnTGeG)"><path d=" M 192.407 92.255 C 181.075 87.799 177.757 85.317 176.803 79.685 C 175.943 74.614 178.935 69.181 186.824 67.844 C 192.176 66.938 196.522 67.797 199.485 69.032 L 199.747 52.616 C 196.644 51.403 190.442 50.714 184.245 51.764 C 176.281 53.113 170.256 56.256 166.026 60.494 L 125.913 67.287 C 124.518 67.524 123.634 69.175 123.94 70.976 C 124.244 72.777 125.622 74.044 127.018 73.808 L 160.8 68.088 C 158.571 73.126 157.973 78.865 158.968 84.734 C 159.891 90.189 162.908 95.87 168.638 100.751 L 149.897 103.925 C 148.861 104.101 148.267 105.703 148.573 107.503 C 148.877 109.304 149.965 110.622 151.001 110.446 L 176.73 106.088 C 178.172 106.827 179.7 107.531 181.34 108.183 C 190.251 112.036 195.049 114.7 196.218 121.602 C 197.268 127.799 193.805 133.022 185.073 134.501 C 179.721 135.407 172.979 134.956 168.819 133.486 L 168.825 138.343 L 126.079 145.581 C 124.511 145.848 123.489 147.521 123.793 149.323 C 124.099 151.124 125.616 152.368 127.182 152.103 L 168.833 145.049 L 168.838 149.856 C 172.246 151.161 180.046 151.869 187.652 150.581 C 206.243 147.433 217.128 133.853 214.193 116.529 C 212.5 106.528 206.231 97.737 192.407 92.255 Z " fill="rgb(74,198,212)"/><path d=" M 277.08 21.503 L 266.301 23.329 C 265.825 23.409 265.688 24.934 265.992 26.736 C 266.297 28.536 266.93 29.93 267.406 29.851 L 277.379 28.162 L 278.686 57.313 C 279.278 68.514 279.87 78.847 280.702 91.455 L 280.419 91.502 C 277.194 79.299 273.715 69.021 270.211 58.604 L 257.527 22.212 L 242.597 24.74 L 242.472 37.978 L 230.881 39.94 C 230.404 40.021 230.267 41.546 230.571 43.348 C 230.877 45.148 231.509 46.542 231.985 46.461 L 242.409 44.696 L 242.229 63.633 C 242.191 75.376 241.819 86.014 242.531 97.92 L 242.109 97.991 C 239.026 86.633 236.343 75.93 233.239 65.299 L 222.175 28.199 L 203.018 31.443 L 203.879 33.902 L 160.805 41.197 C 159.239 41.463 158.216 43.137 158.521 44.938 C 158.826 46.739 160.343 47.984 161.909 47.718 L 206.096 40.234 L 217.162 71.839 L 193.182 75.9 C 192.147 76.075 191.553 77.677 191.858 79.479 C 192.164 81.279 193.251 82.596 194.287 82.42 L 219.378 78.171 L 231.239 112.049 L 218.504 114.205 C 217.716 114.339 217.324 115.907 217.628 117.708 C 217.934 119.508 218.82 120.86 219.609 120.726 L 233.456 118.381 L 235.295 123.632 L 253.605 120.53 L 254.696 88.471 C 255.091 78.84 254.853 68.015 254.611 56.319 L 254.893 56.272 C 258.117 67.606 261.362 78.214 264.39 86.684 L 269.975 102.134 L 263.373 103.252 C 262.897 103.332 262.759 104.858 263.063 106.658 C 263.369 108.459 264.001 109.853 264.477 109.773 L 272.259 108.454 L 275.296 116.857 L 294.311 113.636 L 294.992 15.866 L 276.965 18.919 L 277.08 21.503 Z " fill="rgb(74,198,212)"/><path d=" M 307.862 31.127 L 308.648 35.767 L 300.901 37.079 C 300.425 37.161 300.287 38.685 300.593 40.487 C 300.897 42.287 301.529 43.681 302.005 43.602 L 309.752 42.288 L 315.35 75.332 L 299.22 78.065 C 298.5 78.186 298.164 79.745 298.47 81.546 C 298.775 83.346 299.604 84.707 300.324 84.586 L 316.454 81.853 L 321.875 113.863 L 298.717 117.786 C 297.777 117.944 297.261 119.533 297.566 121.334 C 297.87 123.135 298.881 124.465 299.821 124.305 L 322.979 120.383 L 323.941 126.059 L 342.391 122.934 L 326.313 28.002 L 307.862 31.127 Z " fill="rgb(74,198,212)"/><path d=" M 470.701 101.202 L 454.622 6.27 L 436.17 9.395 L 437.509 17.296 L 425.6 19.313 C 425.124 19.394 424.986 20.919 425.292 22.719 C 425.596 24.52 426.228 25.914 426.705 25.834 L 438.613 23.817 L 442.612 47.423 L 423.315 50.691 L 416.874 12.662 L 398.423 15.788 L 399.21 20.429 L 372.146 25.012 C 371.147 25.182 370.584 26.778 370.889 28.58 C 371.195 30.381 372.251 31.703 373.25 31.533 L 400.314 26.95 L 412.437 98.524 L 394.043 101.639 C 393.35 101.756 393.036 103.311 393.342 105.111 C 393.646 106.912 394.454 108.277 395.148 108.159 L 413.541 105.044 L 414.501 110.72 L 432.952 107.594 L 426.225 67.876 L 445.521 64.606 L 449.344 87.182 L 431.957 90.127 C 431.322 90.234 431.055 91.781 431.359 93.581 C 431.665 95.383 432.427 96.755 433.062 96.647 L 450.45 93.703 L 452.249 104.327 L 470.701 101.202 Z " fill="rgb(74,198,212)"/><path d=" M 364.024 187.561 L 375.487 185.511 L 371.135 161.188 L 384.434 158.808 L 382.727 149.271 L 369.429 151.651 L 366.723 136.514 L 380.895 133.978 L 379.111 124.005 L 353.476 128.591 L 364.024 187.561 Z " fill="rgb(255,255,255)"/><path d=" M 399.449 191.939 L 410.912 189.889 L 400.363 130.919 L 388.9 132.969 L 399.449 191.939 Z " fill="rgb(255,255,255)"/><path d=" M 421.013 116.377 L 409.552 118.427 L 420.1 177.397 L 446.7 172.641 L 444.962 162.928 L 429.824 165.636 L 421.013 116.377 Z " fill="rgb(255,255,255)"/><path d=" M 464.314 171.149 L 461.467 155.225 L 474.941 152.815 L 473.236 143.278 L 459.76 145.688 L 457.335 132.128 L 471.507 129.592 L 469.724 119.616 L 444.088 124.202 L 454.636 183.174 L 481.323 178.399 L 479.539 168.425 L 464.314 171.149 Z " fill="rgb(255,255,255)"/><path d=" M 373.113 102.502 C 391.705 99.354 402.589 85.774 399.654 68.449 C 397.961 58.449 391.691 49.658 377.868 44.176 C 366.536 39.72 363.217 37.238 362.264 31.605 C 361.404 26.533 364.396 21.101 372.285 19.765 C 377.636 18.859 381.984 19.716 384.945 20.953 L 385.209 4.537 C 382.104 3.324 375.902 2.635 369.705 3.685 C 364.932 4.493 360.86 5.952 357.44 7.894 L 319.354 14.345 C 318.095 14.558 317.32 16.191 317.625 17.991 C 317.931 19.792 319.199 21.079 320.458 20.866 L 348.399 16.133 C 344.455 21.985 343.168 29.217 344.428 36.654 C 345.352 42.107 348.369 47.789 354.097 52.671 L 339.069 55.216 C 338.257 55.354 337.847 56.924 338.152 58.726 C 338.456 60.526 339.361 61.875 340.173 61.737 L 362.191 58.007 C 363.633 58.745 365.16 59.45 366.801 60.104 C 375.712 63.955 380.509 66.621 381.678 73.521 C 382.729 79.719 379.266 84.943 370.533 86.422 C 365.182 87.328 358.44 86.875 354.28 85.407 L 354.285 90.539 L 344.701 92.162 C 344.225 92.243 344.087 93.767 344.393 95.568 C 344.697 97.368 345.329 98.762 345.805 98.682 L 354.293 97.244 L 354.298 101.777 C 357.708 103.081 365.507 103.79 373.113 102.502 Z " fill="rgb(74,198,212)"/><path d=" M 173.121 65.967 C 173.273 66.868 172.266 67.789 170.869 68.025 L 125.388 75.729 C 123.993 75.966 122.739 75.427 122.585 74.527 C 122.433 73.627 123.44 72.705 124.837 72.468 L 170.318 64.765 C 171.713 64.53 172.969 65.067 173.121 65.967 Z " fill="rgb(255,255,255)"/><path d=" M 179.169 143.265 C 179.322 144.166 178.176 145.11 176.609 145.376 L 125.552 154.024 C 123.985 154.288 122.592 153.774 122.44 152.873 C 122.288 151.972 123.433 151.028 124.999 150.763 L 176.057 142.116 C 177.623 141.85 179.017 142.364 179.169 143.265 Z " fill="rgb(255,255,255)"/><path d=" M 215.209 39.227 C 215.363 40.128 214.216 41.073 212.65 41.339 L 161.592 49.985 C 160.026 50.251 158.633 49.736 158.48 48.836 C 158.328 47.935 159.473 46.99 161.039 46.725 L 212.097 38.078 C 213.664 37.812 215.057 38.327 215.209 39.227 Z " fill="rgb(255,255,255)"/><path d=" M 184.734 104.7 C 184.886 105.601 184.171 106.473 183.135 106.648 L 149.37 112.367 C 148.335 112.542 147.37 111.954 147.218 111.054 C 147.066 110.154 147.782 109.282 148.819 109.106 L 182.582 103.387 C 183.618 103.212 184.582 103.799 184.734 104.7 Z " fill="rgb(255,255,255)"/><path d=" M 229.334 77.022 C 229.487 77.923 228.771 78.795 227.735 78.971 L 193.971 84.689 C 192.934 84.865 191.971 84.278 191.819 83.377 C 191.665 82.476 192.382 81.604 193.418 81.428 L 227.182 75.71 C 228.218 75.534 229.182 76.122 229.334 77.022 Z " fill="rgb(255,255,255)"/><path d=" M 363.97 14.517 C 364.122 15.417 363.225 16.32 361.965 16.533 L 320.904 23.487 C 319.644 23.7 318.499 23.143 318.346 22.244 C 318.194 21.343 319.092 20.441 320.351 20.227 L 361.412 13.273 C 362.672 13.059 363.818 13.616 363.97 14.517 Z " fill="rgb(255,255,255)"/><path d=" M 406.642 27.313 C 406.795 28.213 406.109 29.08 405.109 29.249 L 372.558 34.762 C 371.56 34.931 370.626 34.339 370.474 33.438 C 370.322 32.537 371.008 31.671 372.005 31.502 L 404.557 25.989 C 405.556 25.819 406.49 26.412 406.642 27.313 Z " fill="rgb(255,255,255)"/><path d=" M 332.675 120.759 C 332.827 121.66 332.188 122.518 331.246 122.678 L 300.569 127.874 C 299.627 128.034 298.741 127.432 298.587 126.533 C 298.435 125.632 299.075 124.774 300.016 124.613 L 330.695 119.418 C 331.635 119.258 332.523 119.858 332.675 120.759 Z " fill="rgb(255,255,255)"/><path d=" M 367.994 58.387 C 368.146 59.288 367.613 60.129 366.802 60.266 L 340.373 64.742 C 339.562 64.88 338.782 64.261 338.628 63.36 C 338.476 62.461 339.009 61.62 339.821 61.482 L 366.249 57.006 C 367.06 56.868 367.842 57.486 367.994 58.387 Z " fill="rgb(255,255,255)"/><path d=" M 325.531 82.333 C 325.683 83.234 325.224 84.062 324.504 84.184 L 301.07 88.153 C 300.351 88.275 299.644 87.644 299.492 86.743 C 299.34 85.844 299.799 85.014 300.518 84.893 L 323.953 80.924 C 324.672 80.801 325.379 81.432 325.531 82.333 Z " fill="rgb(255,255,255)"/><path d=" M 362.084 97.286 C 362.236 98.187 361.974 98.982 361.499 99.063 L 346.005 101.687 C 345.529 101.768 345.021 101.102 344.867 100.203 C 344.715 99.302 344.977 98.507 345.453 98.427 L 360.946 95.802 C 361.422 95.722 361.93 96.386 362.084 97.286 Z " fill="rgb(255,255,255)"/><path d=" M 418.901 105.499 C 419.053 106.4 418.615 107.224 417.922 107.342 L 395.347 111.166 C 394.653 111.283 393.969 110.648 393.817 109.748 C 393.663 108.847 394.101 108.023 394.794 107.905 L 417.37 104.081 C 418.063 103.963 418.749 104.598 418.901 105.499 Z " fill="rgb(255,255,255)"/><path d=" M 442.2 25.299 C 442.352 26.2 442.09 26.995 441.616 27.076 L 426.121 29.7 C 425.645 29.781 425.137 29.115 424.984 28.216 C 424.832 27.315 425.094 26.519 425.57 26.44 L 441.063 23.815 C 441.539 23.735 442.048 24.399 442.2 25.299 Z " fill="rgb(255,255,255)"/><path d=" M 319.191 42.77 C 319.345 43.67 319.081 44.465 318.606 44.546 L 303.114 47.17 C 302.637 47.25 302.128 46.586 301.976 45.685 C 301.824 44.784 302.085 43.989 302.561 43.91 L 318.055 41.284 C 318.53 41.205 319.039 41.869 319.191 42.77 Z " fill="rgb(255,255,255)"/><path d=" M 407.118 76.914 C 407.27 77.815 407.064 78.6 406.655 78.669 L 393.363 80.921 C 392.954 80.991 392.501 80.316 392.349 79.415 C 392.197 78.515 392.403 77.73 392.812 77.66 L 406.104 75.409 C 406.512 75.34 406.966 76.013 407.118 76.914 Z " fill="rgb(255,255,255)"/><path d=" M 337.611 30.59 C 337.763 31.491 337.501 32.286 337.027 32.367 L 321.532 34.991 C 321.056 35.072 320.548 34.406 320.395 33.507 C 320.243 32.605 320.505 31.811 320.981 31.73 L 336.474 29.106 C 336.95 29.025 337.459 29.689 337.611 30.59 Z " fill="rgb(255,255,255)"/><path d=" M 472.452 66.577 C 472.604 67.478 472.343 68.273 471.867 68.353 L 456.374 70.978 C 455.897 71.058 455.389 70.393 455.237 69.494 C 455.085 68.593 455.345 67.798 455.821 67.717 L 471.314 65.093 C 471.79 65.012 472.3 65.676 472.452 66.577 Z " fill="rgb(255,255,255)"/><path d=" M 433.268 42.358 C 433.42 43.259 433.158 44.054 432.683 44.135 L 417.189 46.759 C 416.714 46.84 416.205 46.174 416.053 45.275 C 415.901 44.374 416.161 43.579 416.638 43.499 L 432.132 40.874 C 432.607 40.794 433.116 41.458 433.268 42.358 Z " fill="rgb(255,255,255)"/><path d=" M 305.303 60.326 C 305.455 61.227 305.193 62.022 304.718 62.102 L 289.224 64.727 C 288.749 64.806 288.24 64.142 288.088 63.243 C 287.934 62.34 288.196 61.546 288.672 61.466 L 304.165 58.842 C 304.641 58.761 305.151 59.425 305.303 60.326 Z " fill="rgb(255,255,255)"/><path d=" M 350.408 107.975 C 350.56 108.876 350.299 109.671 349.824 109.752 L 334.33 112.376 C 333.855 112.456 333.345 111.791 333.193 110.892 C 333.041 109.99 333.302 109.195 333.778 109.115 L 349.272 106.491 C 349.747 106.41 350.256 107.074 350.408 107.975 Z " fill="rgb(255,255,255)"/><path d=" M 239.542 55.857 C 239.694 56.757 239.432 57.552 238.957 57.632 L 223.463 60.256 C 222.987 60.337 222.479 59.673 222.325 58.772 C 222.173 57.871 222.435 57.076 222.911 56.995 L 238.404 54.371 C 238.88 54.292 239.388 54.956 239.542 55.857 Z " fill="rgb(255,255,255)"/><path d=" M 281.469 108.634 C 281.621 109.535 281.359 110.33 280.884 110.409 L 265.39 113.034 C 264.915 113.114 264.406 112.45 264.254 111.549 C 264.102 110.648 264.362 109.853 264.838 109.773 L 280.333 107.148 C 280.808 107.069 281.317 107.733 281.469 108.634 Z " fill="rgb(255,255,255)"/><path d=" M 204.44 53.342 C 204.592 54.243 204.33 55.038 203.855 55.118 L 188.361 57.743 C 187.885 57.822 187.377 57.158 187.223 56.257 C 187.071 55.357 187.333 54.562 187.809 54.482 L 203.302 51.858 C 203.778 51.777 204.286 52.441 204.44 53.342 Z " fill="rgb(255,255,255)"/><path d=" M 187.417 76.142 C 187.569 77.042 187.307 77.837 186.832 77.917 L 171.338 80.542 C 170.862 80.622 170.354 79.958 170.2 79.057 C 170.048 78.156 170.31 77.361 170.786 77.28 L 186.279 74.656 C 186.755 74.577 187.264 75.241 187.417 76.142 Z " fill="rgb(255,255,255)"/><path d=" M 248.616 45.323 C 248.768 46.223 248.506 47.018 248.031 47.099 L 232.537 49.723 C 232.062 49.804 231.553 49.139 231.4 48.239 C 231.247 47.338 231.509 46.543 231.985 46.463 L 247.478 43.838 C 247.954 43.758 248.463 44.422 248.616 45.323 Z " fill="rgb(255,255,255)"/><path d=" M 223.276 129.423 C 223.429 130.324 223.167 131.119 222.692 131.198 L 207.198 133.823 C 206.721 133.903 206.214 133.239 206.06 132.339 C 205.908 131.439 206.17 130.642 206.646 130.562 L 222.139 127.937 C 222.615 127.858 223.124 128.522 223.276 129.423 Z " fill="rgb(255,255,255)"/><path d=" M 284.397 28.711 C 284.549 29.611 284.288 30.406 283.813 30.487 L 268.319 33.111 C 267.844 33.192 267.334 32.527 267.182 31.626 C 267.029 30.725 267.291 29.93 267.767 29.851 L 283.26 27.227 C 283.736 27.146 284.245 27.81 284.397 28.711 Z " fill="rgb(255,255,255)"/><path d=" M 246.998 117.764 C 247.15 118.665 246.635 119.503 245.847 119.636 L 220.161 123.986 C 219.373 124.12 218.611 123.498 218.458 122.598 C 218.306 121.698 218.82 120.86 219.609 120.726 L 245.294 116.376 C 246.083 116.242 246.846 116.864 246.998 117.764 Z " fill="rgb(255,255,255)"/><path d=" M 454.037 95.186 C 454.189 96.087 453.799 96.903 453.164 97.01 L 432.478 100.514 C 431.843 100.621 431.206 99.979 431.054 99.079 C 430.9 98.178 431.292 97.362 431.927 97.253 L 452.611 93.751 C 453.246 93.642 453.885 94.285 454.037 95.186 Z " fill="rgb(255,255,255)"/></g><defs><filter id="EtMkBKZ3GPe6r3XwQf3nekaKzfCnTGeG" x="-200%" y="-200%" width="400%" height="400%" filterUnits="objectBoundingBox" color-interpolation-filters="sRGB"><feGaussianBlur xmlns="http://www.w3.org/2000/svg" in="SourceGraphic" stdDeviation="2.146804531419514"/><feOffset xmlns="http://www.w3.org/2000/svg" dx="8" dy="5" result="pf_100_offsetBlur"/><feFlood xmlns="http://www.w3.org/2000/svg" flood-color="#000000" flood-opacity="0.65"/><feComposite xmlns="http://www.w3.org/2000/svg" in2="pf_100_offsetBlur" operator="in" result="pf_100_dropShadow"/><feBlend xmlns="http://www.w3.org/2000/svg" in="SourceGraphic" in2="pf_100_dropShadow" mode="normal"/></filter></defs></g></g></g></g></g></svg>