<?xml version="1.0" standalone="no"?><!-- Generator: Gravit.io --><svg xmlns="http://www.w3.org/2000/svg" xmlns:xlink="http://www.w3.org/1999/xlink" style="isolation:isolate" viewBox="0 0 312.2 172.9" width="312.2" height="172.9"><defs><clipPath id="_clipPath_ndiOkXS1jm51ogLk7xhudDR54Tvrq1OQ"><rect width="312.2" height="172.9"/></clipPath></defs><g clip-path="url(#_clipPath_ndiOkXS1jm51ogLk7xhudDR54Tvrq1OQ)"><g><clipPath id="_clipPath_ySpYpG1bmIPbmOS0VX0NuT1sJmMo6VtX"><path d=" M 0 0 L 274.17 0 L 274.17 145.913 L 0 145.913 L 0 0 Z " fill="rgb(255,255,255)"/></clipPath><g clip-path="url(#_clipPath_ySpYpG1bmIPbmOS0VX0NuT1sJmMo6VtX)"><g filter="url(#SAJML8TyzppR6RvQYo88n0vbcbEvyGkl)"><path d=" M 55.742 69.747 C 47.175 66.378 44.666 64.502 43.945 60.244 C 43.295 56.41 45.557 52.303 51.521 51.292 C 55.567 50.607 58.853 51.256 61.093 52.19 L 61.291 39.779 C 58.945 38.862 54.256 38.341 49.571 39.135 C 43.55 40.155 38.995 42.531 35.797 45.735 L 5.471 50.871 C 4.416 51.05 3.748 52.298 3.979 53.66 C 4.209 55.021 5.251 55.979 6.306 55.801 L 31.846 51.476 C 30.161 55.285 29.709 59.624 30.461 64.061 C 31.159 68.185 33.44 72.48 37.772 76.17 L 23.603 78.57 C 22.82 78.703 22.371 79.914 22.602 81.275 C 22.832 82.637 23.655 83.633 24.438 83.5 L 43.89 80.205 C 44.98 80.764 46.135 81.296 47.375 81.789 C 54.112 84.702 57.739 86.716 58.623 91.934 C 59.417 96.619 56.799 100.568 50.197 101.686 C 46.151 102.371 41.054 102.03 37.909 100.919 L 37.913 104.591 L 5.596 110.063 C 4.411 110.265 3.638 111.53 3.868 112.892 C 4.099 114.254 5.246 115.194 6.43 114.994 L 37.919 109.661 L 37.923 113.295 C 40.5 114.282 46.397 114.817 52.147 113.843 C 66.202 111.463 74.432 101.196 72.213 88.099 C 70.933 80.538 66.193 73.892 55.742 69.747 Z " fill="rgb(74,198,212)"/><path d=" M 119.757 16.257 L 111.608 17.637 C 111.248 17.698 111.144 18.851 111.374 20.213 C 111.605 21.574 112.083 22.628 112.443 22.568 L 119.983 21.291 L 120.971 43.33 C 121.419 51.798 121.866 59.61 122.495 69.142 L 122.281 69.178 C 119.843 59.952 117.213 52.182 114.564 44.306 L 104.974 16.793 L 93.687 18.704 L 93.592 28.712 L 84.829 30.196 C 84.469 30.257 84.365 31.41 84.595 32.772 C 84.826 34.133 85.304 35.187 85.664 35.126 L 93.545 33.791 L 93.409 48.108 C 93.38 56.986 93.099 65.029 93.637 74.03 L 93.318 74.084 C 90.987 65.497 88.959 57.405 86.612 49.368 L 78.247 21.319 L 63.764 23.772 L 64.415 25.631 L 31.85 31.146 C 30.666 31.347 29.893 32.613 30.123 33.974 C 30.354 35.336 31.501 36.277 32.685 36.076 L 66.091 30.418 L 74.457 54.312 L 56.328 57.382 C 55.545 57.515 55.096 58.726 55.327 60.088 C 55.558 61.449 56.38 62.445 57.163 62.312 L 76.133 59.099 L 85.1 84.712 L 75.472 86.342 C 74.876 86.443 74.58 87.629 74.81 88.99 C 75.041 90.351 75.711 91.373 76.307 91.272 L 86.776 89.499 L 88.166 93.469 L 102.009 91.124 L 102.834 66.886 C 103.133 59.605 102.953 51.421 102.77 42.579 L 102.983 42.543 C 105.42 51.112 107.874 59.132 110.163 65.535 L 114.385 77.216 L 109.394 78.061 C 109.034 78.122 108.93 79.275 109.16 80.636 C 109.391 81.998 109.869 83.052 110.229 82.991 L 116.112 81.994 L 118.408 88.347 L 132.784 85.912 L 133.299 11.995 L 119.67 14.303 L 119.757 16.257 Z " fill="rgb(74,198,212)"/><path d=" M 143.029 23.533 L 143.623 27.041 L 137.766 28.033 C 137.406 28.095 137.302 29.247 137.533 30.609 C 137.763 31.97 138.241 33.024 138.601 32.964 L 144.458 31.971 L 148.69 56.953 L 136.495 59.019 C 135.951 59.111 135.697 60.289 135.928 61.651 C 136.159 63.012 136.786 64.041 137.33 63.949 L 149.525 61.883 L 153.623 86.083 L 136.115 89.049 C 135.404 89.169 135.014 90.37 135.245 91.732 C 135.475 93.093 136.239 94.099 136.95 93.978 L 154.458 91.013 L 155.185 95.304 L 169.134 92.941 L 156.978 21.17 L 143.029 23.533 Z " fill="rgb(74,198,212)"/><path d=" M 266.139 76.511 L 253.983 4.74 L 240.033 7.103 L 241.045 13.076 L 232.042 14.601 C 231.682 14.662 231.578 15.815 231.809 17.176 C 232.039 18.538 232.517 19.592 232.877 19.531 L 241.88 18.006 L 244.903 35.853 L 230.314 38.324 L 225.445 9.573 L 211.495 11.936 L 212.09 15.445 L 191.629 18.91 C 190.874 19.038 190.448 20.245 190.679 21.607 C 190.91 22.969 191.709 23.968 192.464 23.84 L 212.925 20.375 L 222.09 74.487 L 208.184 76.842 C 207.66 76.93 207.423 78.106 207.654 79.467 C 207.884 80.828 208.495 81.86 209.019 81.771 L 222.925 79.416 L 223.651 83.707 L 237.6 81.344 L 232.514 51.316 L 247.103 48.844 L 249.993 65.912 L 236.848 68.138 C 236.368 68.219 236.166 69.389 236.396 70.75 C 236.627 72.112 237.203 73.149 237.683 73.068 L 250.829 70.842 L 252.189 78.874 L 266.139 76.511 Z " fill="rgb(74,198,212)"/><path d=" M 185.489 141.801 L 194.155 140.251 L 190.865 121.862 L 200.919 120.063 L 199.629 112.853 L 189.575 114.652 L 187.529 103.208 L 198.244 101.291 L 196.895 93.751 L 177.514 97.218 L 185.489 141.801 Z " fill="rgb(255,255,255)"/><path d=" M 212.271 145.111 L 220.937 143.561 L 212.962 98.978 L 204.296 100.528 L 212.271 145.111 Z " fill="rgb(255,255,255)"/><path d=" M 228.574 87.984 L 219.909 89.534 L 227.884 134.117 L 247.994 130.521 L 246.68 123.178 L 235.235 125.225 L 228.574 87.984 Z " fill="rgb(255,255,255)"/><path d=" M 261.311 129.393 L 259.158 117.354 L 269.345 115.532 L 268.056 108.322 L 257.868 110.144 L 256.034 99.892 L 266.749 97.975 L 265.401 90.433 L 246.019 93.9 L 253.994 138.484 L 274.17 134.874 L 272.821 127.334 L 261.311 129.393 Z " fill="rgb(255,255,255)"/><path d=" M 192.36 77.494 C 206.416 75.114 214.645 64.847 212.426 51.749 C 211.146 44.189 206.406 37.543 195.955 33.398 C 187.388 30.029 184.879 28.153 184.158 23.894 C 183.508 20.06 185.77 15.953 191.734 14.943 C 195.78 14.258 199.067 14.906 201.306 15.841 L 201.505 3.43 C 199.158 2.513 194.469 1.992 189.784 2.786 C 186.175 3.397 183.097 4.5 180.511 5.968 L 151.717 10.845 C 150.765 11.006 150.179 12.241 150.41 13.602 C 150.641 14.963 151.6 15.936 152.552 15.775 L 173.676 12.197 C 170.694 16.621 169.721 22.089 170.674 27.711 C 171.372 31.834 173.653 36.13 177.984 39.821 L 166.622 41.745 C 166.008 41.849 165.698 43.036 165.929 44.398 C 166.159 45.759 166.843 46.779 167.457 46.675 L 184.103 43.855 C 185.193 44.413 186.348 44.946 187.588 45.44 C 194.325 48.352 197.952 50.367 198.836 55.584 C 199.63 60.27 197.012 64.219 190.41 65.337 C 186.364 66.022 181.267 65.68 178.122 64.57 L 178.126 68.45 L 170.88 69.677 C 170.52 69.738 170.416 70.89 170.647 72.252 C 170.877 73.613 171.355 74.667 171.715 74.606 L 178.132 73.519 L 178.136 76.946 C 180.714 77.932 186.61 78.468 192.36 77.494 Z " fill="rgb(74,198,212)"/><path d=" M 41.161 49.873 C 41.276 50.554 40.515 51.25 39.459 51.429 L 5.074 57.253 C 4.019 57.432 3.071 57.025 2.955 56.344 C 2.84 55.664 3.601 54.967 4.657 54.788 L 39.042 48.964 C 40.097 48.786 41.046 49.192 41.161 49.873 Z " fill="rgb(255,255,255)"/><path d=" M 45.734 108.312 C 45.849 108.993 44.983 109.707 43.798 109.908 L 5.198 116.446 C 4.013 116.646 2.96 116.257 2.845 115.576 C 2.73 114.895 3.596 114.181 4.78 113.981 L 43.381 107.443 C 44.565 107.242 45.619 107.631 45.734 108.312 Z " fill="rgb(255,255,255)"/><path d=" M 72.981 29.657 C 73.097 30.338 72.23 31.052 71.046 31.253 L 32.445 37.79 C 31.261 37.991 30.208 37.602 30.092 36.921 C 29.977 36.24 30.843 35.526 32.027 35.325 L 70.628 28.788 C 71.813 28.587 72.866 28.976 72.981 29.657 Z " fill="rgb(255,255,255)"/><path d=" M 49.941 79.156 C 50.056 79.837 49.515 80.496 48.732 80.629 L 23.205 84.952 C 22.422 85.085 21.693 84.64 21.578 83.96 C 21.463 83.279 22.004 82.62 22.788 82.487 L 48.314 78.163 C 49.097 78.031 49.826 78.475 49.941 79.156 Z " fill="rgb(255,255,255)"/><path d=" M 83.66 58.231 C 83.775 58.912 83.234 59.571 82.451 59.704 L 56.924 64.027 C 56.14 64.16 55.412 63.716 55.297 63.035 C 55.181 62.354 55.723 61.695 56.506 61.562 L 82.033 57.239 C 82.816 57.106 83.545 57.55 83.66 58.231 Z " fill="rgb(255,255,255)"/><path d=" M 185.448 10.975 C 185.563 11.656 184.885 12.338 183.932 12.499 L 152.889 17.757 C 151.936 17.918 151.071 17.497 150.955 16.817 C 150.84 16.136 151.519 15.454 152.471 15.292 L 183.514 10.035 C 184.467 9.873 185.333 10.294 185.448 10.975 Z " fill="rgb(255,255,255)"/><path d=" M 217.709 20.649 C 217.825 21.33 217.306 21.985 216.55 22.113 L 191.941 26.281 C 191.186 26.409 190.48 25.961 190.365 25.28 C 190.25 24.599 190.769 23.944 191.523 23.816 L 216.133 19.648 C 216.888 19.52 217.594 19.968 217.709 20.649 Z " fill="rgb(255,255,255)"/><path d=" M 161.788 91.297 C 161.903 91.978 161.42 92.627 160.708 92.748 L 137.515 96.676 C 136.803 96.797 136.133 96.342 136.017 95.662 C 135.902 94.981 136.386 94.332 137.097 94.211 L 160.291 90.283 C 161.002 90.162 161.673 90.616 161.788 91.297 Z " fill="rgb(255,255,255)"/><path d=" M 188.49 44.142 C 188.605 44.823 188.202 45.459 187.589 45.563 L 167.608 48.947 C 166.995 49.051 166.405 48.583 166.289 47.902 C 166.174 47.222 166.577 46.586 167.191 46.482 L 187.171 43.098 C 187.784 42.994 188.375 43.461 188.49 44.142 Z " fill="rgb(255,255,255)"/><path d=" M 156.387 62.246 C 156.502 62.927 156.155 63.553 155.611 63.645 L 137.894 66.646 C 137.35 66.738 136.816 66.261 136.701 65.58 C 136.586 64.9 136.933 64.273 137.477 64.181 L 155.194 61.181 C 155.738 61.088 156.272 61.565 156.387 62.246 Z " fill="rgb(255,255,255)"/><path d=" M 184.022 73.551 C 184.137 74.232 183.939 74.833 183.58 74.894 L 171.866 76.878 C 171.506 76.939 171.122 76.436 171.006 75.756 C 170.891 75.075 171.089 74.474 171.449 74.413 L 183.162 72.429 C 183.522 72.368 183.906 72.87 184.022 73.551 Z " fill="rgb(255,255,255)"/><path d=" M 226.977 79.76 C 227.092 80.441 226.761 81.064 226.237 81.153 L 209.17 84.044 C 208.645 84.133 208.128 83.653 208.013 82.972 C 207.897 82.291 208.228 81.668 208.752 81.579 L 225.82 78.688 C 226.344 78.599 226.862 79.079 226.977 79.76 Z " fill="rgb(255,255,255)"/><path d=" M 244.592 19.127 C 244.707 19.808 244.509 20.409 244.15 20.47 L 232.436 22.454 C 232.076 22.515 231.692 22.012 231.576 21.332 C 231.461 20.651 231.659 20.049 232.019 19.989 L 243.732 18.005 C 244.092 17.944 244.477 18.446 244.592 19.127 Z " fill="rgb(255,255,255)"/><path d=" M 151.594 32.335 C 151.71 33.016 151.511 33.617 151.152 33.678 L 139.439 35.662 C 139.079 35.722 138.694 35.22 138.579 34.539 C 138.464 33.858 138.661 33.257 139.021 33.197 L 150.735 31.212 C 151.094 31.152 151.479 31.654 151.594 32.335 Z " fill="rgb(255,255,255)"/><path d=" M 218.069 58.149 C 218.184 58.83 218.028 59.424 217.719 59.476 L 207.67 61.178 C 207.361 61.231 207.018 60.721 206.903 60.04 C 206.788 59.359 206.944 58.766 207.253 58.713 L 217.302 57.011 C 217.611 56.959 217.954 57.468 218.069 58.149 Z " fill="rgb(255,255,255)"/><path d=" M 165.52 23.127 C 165.635 23.808 165.437 24.409 165.078 24.47 L 153.364 26.454 C 153.004 26.515 152.62 26.012 152.504 25.332 C 152.389 24.65 152.587 24.05 152.947 23.989 L 164.66 22.005 C 165.02 21.944 165.405 22.446 165.52 23.127 Z " fill="rgb(255,255,255)"/><path d=" M 267.463 50.334 C 267.578 51.015 267.381 51.616 267.021 51.677 L 255.308 53.661 C 254.947 53.722 254.563 53.219 254.448 52.539 C 254.333 51.858 254.53 51.257 254.89 51.196 L 266.603 49.212 C 266.963 49.151 267.348 49.653 267.463 50.334 Z " fill="rgb(255,255,255)"/><path d=" M 237.839 32.024 C 237.954 32.705 237.756 33.306 237.397 33.367 L 225.683 35.351 C 225.324 35.412 224.939 34.909 224.824 34.229 C 224.709 33.548 224.906 32.947 225.266 32.886 L 236.98 30.902 C 237.339 30.841 237.724 31.343 237.839 32.024 Z " fill="rgb(255,255,255)"/><path d=" M 141.094 45.608 C 141.209 46.289 141.011 46.89 140.652 46.951 L 128.938 48.935 C 128.579 48.995 128.194 48.493 128.079 47.813 C 127.963 47.131 128.161 46.53 128.521 46.47 L 140.234 44.486 C 140.594 44.425 140.979 44.927 141.094 45.608 Z " fill="rgb(255,255,255)"/><path d=" M 175.195 81.632 C 175.31 82.313 175.112 82.914 174.753 82.975 L 163.039 84.959 C 162.68 85.02 162.295 84.517 162.18 83.837 C 162.065 83.155 162.262 82.554 162.622 82.494 L 174.336 80.51 C 174.695 80.449 175.08 80.951 175.195 81.632 Z " fill="rgb(255,255,255)"/><path d=" M 91.377 42.229 C 91.492 42.91 91.294 43.511 90.935 43.571 L 79.221 45.555 C 78.861 45.616 78.477 45.114 78.361 44.433 C 78.246 43.752 78.444 43.151 78.804 43.09 L 90.517 41.106 C 90.877 41.046 91.261 41.548 91.377 42.229 Z " fill="rgb(255,255,255)"/><path d=" M 123.075 82.13 C 123.19 82.811 122.992 83.412 122.633 83.472 L 110.919 85.457 C 110.56 85.517 110.175 85.015 110.06 84.334 C 109.945 83.653 110.142 83.052 110.502 82.991 L 122.216 81.007 C 122.575 80.947 122.96 81.449 123.075 82.13 Z " fill="rgb(255,255,255)"/><path d=" M 64.839 40.328 C 64.954 41.009 64.756 41.61 64.397 41.671 L 52.683 43.655 C 52.323 43.715 51.939 43.213 51.823 42.532 C 51.708 41.851 51.906 41.25 52.266 41.19 L 63.979 39.206 C 64.339 39.145 64.723 39.647 64.839 40.328 Z " fill="rgb(255,255,255)"/><path d=" M 51.969 57.565 C 52.084 58.246 51.886 58.847 51.527 58.907 L 39.813 60.892 C 39.453 60.952 39.069 60.45 38.953 59.769 C 38.838 59.088 39.036 58.487 39.396 58.426 L 51.109 56.442 C 51.469 56.382 51.854 56.884 51.969 57.565 Z " fill="rgb(255,255,255)"/><path d=" M 98.237 34.265 C 98.352 34.946 98.154 35.547 97.795 35.608 L 86.081 37.592 C 85.722 37.653 85.337 37.15 85.222 36.47 C 85.106 35.789 85.304 35.188 85.664 35.127 L 97.377 33.143 C 97.737 33.082 98.122 33.584 98.237 34.265 Z " fill="rgb(255,255,255)"/><path d=" M 79.08 97.847 C 79.195 98.528 78.997 99.129 78.638 99.189 L 66.924 101.174 C 66.564 101.234 66.18 100.732 66.064 100.052 C 65.949 99.371 66.147 98.769 66.507 98.708 L 78.22 96.724 C 78.58 96.664 78.965 97.166 79.08 97.847 Z " fill="rgb(255,255,255)"/><path d=" M 125.289 21.706 C 125.404 22.387 125.206 22.988 124.847 23.049 L 113.133 25.033 C 112.774 25.094 112.389 24.591 112.274 23.91 C 112.158 23.229 112.356 22.628 112.716 22.568 L 124.429 20.584 C 124.789 20.523 125.174 21.025 125.289 21.706 Z " fill="rgb(255,255,255)"/><path d=" M 97.014 89.033 C 97.129 89.714 96.74 90.347 96.144 90.448 L 76.725 93.737 C 76.129 93.838 75.553 93.368 75.437 92.687 C 75.322 92.007 75.711 91.373 76.307 91.272 L 95.726 87.983 C 96.322 87.882 96.899 88.352 97.014 89.033 Z " fill="rgb(255,255,255)"/><path d=" M 253.541 71.963 C 253.656 72.644 253.361 73.261 252.881 73.342 L 237.242 75.991 C 236.762 76.072 236.28 75.587 236.165 74.906 C 236.049 74.225 236.345 73.608 236.825 73.526 L 252.463 70.878 C 252.943 70.796 253.426 71.282 253.541 71.963 Z " fill="rgb(255,255,255)"/></g><defs><filter id="SAJML8TyzppR6RvQYo88n0vbcbEvyGkl" x="-200%" y="-200%" width="400%" height="400%" filterUnits="objectBoundingBox" color-interpolation-filters="sRGB"><feGaussianBlur xmlns="http://www.w3.org/2000/svg" in="SourceGraphic" stdDeviation="2.146804531419514"/><feOffset xmlns="http://www.w3.org/2000/svg" dx="8" dy="5" result="pf_100_offsetBlur"/><feFlood xmlns="http://www.w3.org/2000/svg" flood-color="#000000" flood-opacity="0.65"/><feComposite xmlns="http://www.w3.org/2000/svg" in2="pf_100_offsetBlur" operator="in" result="pf_100_dropShadow"/><feBlend xmlns="http://www.w3.org/2000/svg" in="SourceGraphic" in2="pf_100_dropShadow" mode="normal"/></filter></defs></g></g></g></svg>
